<svg width="25" height="25" viewBox="0 0 25 25" fill="none" xmlns="http://www.w3.org/2000/svg">
<g id="Icon/Outline/shopping-cart">
<path id="Icon" d="M3.23389 3.5H5.23389L5.63389 5.5M7.23389 13.5H17.2339L21.2339 5.5H5.63389M7.23389 13.5L5.63389 5.5M7.23389 13.5L4.94099 15.7929C4.31103 16.4229 4.7572 17.5 5.6481 17.5H17.2339M17.2339 17.5C16.1293 17.5 15.2339 18.3954 15.2339 19.5C15.2339 20.6046 16.1293 21.5 17.2339 21.5C18.3385 21.5 19.2339 20.6046 19.2339 19.5C19.2339 18.3954 18.3385 17.5 17.2339 17.5ZM9.23389 19.5C9.23389 20.6046 8.33846 21.5 7.23389 21.5C6.12932 21.5 5.23389 20.6046 5.23389 19.5C5.23389 18.3954 6.12932 17.5 7.23389 17.5C8.33846 17.5 9.23389 18.3954 9.23389 19.5Z" stroke="#5F5F5F" stroke-width="2" stroke-linecap="round" stroke-linejoin="round"/>
</g>
</svg>
